STARTFONT 2.1
FONT -DEC-Terminal-Medium-R-Normal--14-140-75-75-C-80-DEC-DECtech
SIZE 14 75 75
FONTBOUNDINGBOX 8 15 0 -3

STARTPROPERTIES 24
FOUNDRY "DEC"
FAMILY_NAME "Terminal"
WEIGHT_NAME "Medium"
SLANT "R"
SETWIDTH_NAME "Normal"
ADD_STYLE_NAME ""
PIXEL_SIZE 14
POINT_SIZE 140
RESOLUTION_X 75
RESOLUTION_Y 75
SPACING "C"
AVERAGE_WIDTH 80
CHARSET_REGISTRY "DEC"
CHARSET_ENCODING "DECtech"
CAP_HEIGHT 8
COPYRIGHT "Copyright (c) 1991 Digital Equipment Corporation. All Rights Reserved."
_DEC_PRODUCTINFO "DECterm Fonts V2.2, 11-Nov-1991"
FULL_NAME "Terminal DECtech"
WEIGHT 10
X_HEIGHT -1
QUAD_WIDTH 8
DEFAULT_CHAR 159
FONT_DESCENT 3
FONT_ASCENT 12
ENDPROPERTIES

CHARS 182

STARTCHAR space
ENCODING 32
SWIDTH 570 0
DWIDTH 8 0
BBX 8 15 0 -3
BITMAP
00
00
00
00
00
00
00
00
00
00
00
00
00
00
00
ENDCHAR

STARTCHAR exclam
ENCODING 33
SWIDTH 570 0
DWIDTH 8 0
BBX 8 15 0 -3
BITMAP
00
00
00
00
10
10
10
10
10
00
10
10
00
00
00
ENDCHAR

STARTCHAR quotedbl
ENCODING 34
SWIDTH 570 0
DWIDTH 8 0
BBX 8 15 0 -3
BITMAP
00
00
00
24
24
24
00
00
00
00
00
00
00
00
00
ENDCHAR

STARTCHAR numbersign
ENCODING 35
SWIDTH 570 0
DWIDTH 8 0
BBX 8 15 0 -3
BITMAP
00
00
00
00
24
24
7E
24
7E
24
24
00
00
00
00
ENDCHAR

STARTCHAR dollar
ENCODING 36
SWIDTH 570 0
DWIDTH 8 0
BBX 8 15 0 -3
BITMAP
00
00
00
00
08
1C
2A
18
0C
2A
1C
08
00
00
00
ENDCHAR

STARTCHAR percent
ENCODING 37
SWIDTH 570 0
DWIDTH 8 0
BBX 8 15 0 -3
BITMAP
00
00
00
00
24
5C
28
08
10
14
2A
24
00
00
00
ENDCHAR

STARTCHAR ampersand
ENCODING 38
SWIDTH 570 0
DWIDTH 8 0
BBX 8 15 0 -3
BITMAP
00
00
00
00
10
28
28
10
2A
44
44
3A
00
00
00
ENDCHAR

STARTCHAR quoteright
ENCODING 39
SWIDTH 570 0
DWIDTH 8 0
BBX 8 15 0 -3
BITMAP
00
00
00
08
08
10
00
00
00
00
00
00
00
00
00
ENDCHAR

STARTCHAR parenleft
ENCODING 40
SWIDTH 570 0
DWIDTH 8 0
BBX 8 15 0 -3
BITMAP
00
00
00
04
08
08
10
10
10
10
08
08
04
00
00
ENDCHAR

STARTCHAR parenright
ENCODING 41
SWIDTH 570 0
DWIDTH 8 0
BBX 8 15 0 -3
BITMAP
00
00
00
20
10
10
08
08
08
08
10
10
20
00
00
ENDCHAR

STARTCHAR asterisk
ENCODING 42
SWIDTH 570 0
DWIDTH 8 0
BBX 8 15 0 -3
BITMAP
00
00
00
00
08
2A
1C
1C
2A
08
00
00
00
00
00
ENDCHAR

STARTCHAR plus
ENCODING 43
SWIDTH 570 0
DWIDTH 8 0
BBX 8 15 0 -3
BITMAP
00
00
00
00
00
00
08
08
3E
08
08
00
00
00
00
ENDCHAR

STARTCHAR comma
ENCODING 44
SWIDTH 570 0
DWIDTH 8 0
BBX 8 15 0 -3
BITMAP
00
00
00
00
00
00
00
00
00
00
10
10
20
00
00
ENDCHAR

STARTCHAR minus
ENCODING 45
SWIDTH 570 0
DWIDTH 8 0
BBX 8 15 0 -3
BITMAP
00
00
00
00
00
00
00
00
7E
00
00
00
00
00
00
ENDCHAR

STARTCHAR period
ENCODING 46
SWIDTH 570 0
DWIDTH 8 0
BBX 8 15 0 -3
BITMAP
00
00
00
00
00
00
00
00
00
00
10
10
00
00
00
ENDCHAR

STARTCHAR slash
ENCODING 47
SWIDTH 570 0
DWIDTH 8 0
BBX 8 15 0 -3
BITMAP
00
00
00
04
04
08
08
08
10
10
10
20
20
00
00
ENDCHAR

STARTCHAR zero
ENCODING 48
SWIDTH 570 0
DWIDTH 8 0
BBX 8 15 0 -3
BITMAP
00
00
00
00
1C
22
22
22
22
22
22
1C
00
00
00
ENDCHAR

STARTCHAR one
ENCODING 49
SWIDTH 570 0
DWIDTH 8 0
BBX 8 15 0 -3
BITMAP
00
00
00
00
08
18
28
08
08
08
08
3E
00
00
00
ENDCHAR

STARTCHAR two
ENCODING 50
SWIDTH 570 0
DWIDTH 8 0
BBX 8 15 0 -3
BITMAP
00
00
00
00
1C
22
02
04
08
10
20
3E
00
00
00
ENDCHAR

STARTCHAR three
ENCODING 51
SWIDTH 570 0
DWIDTH 8 0
BBX 8 15 0 -3
BITMAP
00
00
00
00
1C
22
02
0C
02
02
22
1C
00
00
00
ENDCHAR

STARTCHAR four
ENCODING 52
SWIDTH 570 0
DWIDTH 8 0
BBX 8 15 0 -3
BITMAP
00
00
00
00
04
0C
14
14
24
3E
04
04
00
00
00
ENDCHAR

STARTCHAR five
ENCODING 53
SWIDTH 570 0
DWIDTH 8 0
BBX 8 15 0 -3
BITMAP
00
00
00
00
3E
20
20
3C
22
02
22
1C
00
00
00
ENDCHAR

STARTCHAR six
ENCODING 54
SWIDTH 570 0
DWIDTH 8 0
BBX 8 15 0 -3
BITMAP
00
00
00
00
0C
10
20
3C
22
22
22
1C
00
00
00
ENDCHAR

STARTCHAR seven
ENCODING 55
SWIDTH 570 0
DWIDTH 8 0
BBX 8 15 0 -3
BITMAP
00
00
00
00
3E
02
04
08
08
10
10
10
00
00
00
ENDCHAR

STARTCHAR eight
ENCODING 56
SWIDTH 570 0
DWIDTH 8 0
BBX 8 15 0 -3
BITMAP
00
00
00
00
1C
22
22
1C
22
22
22
1C
00
00
00
ENDCHAR

STARTCHAR nine
ENCODING 57
SWIDTH 570 0
DWIDTH 8 0
BBX 8 15 0 -3
BITMAP
00
00
00
00
1C
22
22
22
1E
02
04
18
00
00
00
ENDCHAR

STARTCHAR colon
ENCODING 58
SWIDTH 570 0
DWIDTH 8 0
BBX 8 15 0 -3
BITMAP
00
00
00
00
00
00
10
10
00
00
10
10
00
00
00
ENDCHAR

STARTCHAR semicolon
ENCODING 59
SWIDTH 570 0
DWIDTH 8 0
BBX 8 15 0 -3
BITMAP
00
00
00
00
00
00
10
10
00
00
10
10
20
00
00
ENDCHAR

STARTCHAR less
ENCODING 60
SWIDTH 570 0
DWIDTH 8 0
BBX 8 15 0 -3
BITMAP
00
00
00
00
00
04
08
10
20
10
08
04
00
00
00
ENDCHAR

STARTCHAR equal
ENCODING 61
SWIDTH 570 0
DWIDTH 8 0
BBX 8 15 0 -3
BITMAP
00
00
00
00
00
00
00
7E
00
7E
00
00
00
00
00
ENDCHAR

STARTCHAR greater
ENCODING 62
SWIDTH 570 0
DWIDTH 8 0
BBX 8 15 0 -3
BITMAP
00
00
00
00
00
20
10
08
04
08
10
20
00
00
00
ENDCHAR

STARTCHAR question
ENCODING 63
SWIDTH 570 0
DWIDTH 8 0
BBX 8 15 0 -3
BITMAP
00
00
00
00
38
44
04
08
10
00
10
10
00
00
00
ENDCHAR

STARTCHAR at
ENCODING 64
SWIDTH 570 0
DWIDTH 8 0
BBX 8 15 0 -3
BITMAP
00
00
00
00
3C
42
4E
52
52
4E
40
3C
00
00
00
ENDCHAR

STARTCHAR A
ENCODING 65
SWIDTH 570 0
DWIDTH 8 0
BBX 8 15 0 -3
BITMAP
00
00
00
00
18
24
42
42
7E
42
42
42
00
00
00
ENDCHAR

STARTCHAR B
ENCODING 66
SWIDTH 570 0
DWIDTH 8 0
BBX 8 15 0 -3
BITMAP
00
00
00
00
7C
42
42
7C
42
42
42
7C
00
00
00
ENDCHAR

STARTCHAR C
ENCODING 67
SWIDTH 570 0
DWIDTH 8 0
BBX 8 15 0 -3
BITMAP
00
00
00
00
3C
42
40
40
40
40
42
3C
00
00
00
ENDCHAR

STARTCHAR D
ENCODING 68
SWIDTH 570 0
DWIDTH 8 0
BBX 8 15 0 -3
BITMAP
00
00
00
00
7C
42
42
42
42
42
42
7C
00
00
00
ENDCHAR

STARTCHAR E
ENCODING 69
SWIDTH 570 0
DWIDTH 8 0
BBX 8 15 0 -3
BITMAP
00
00
00
00
3E
20
20
3C
20
20
20
3E
00
00
00
ENDCHAR

STARTCHAR F
ENCODING 70
SWIDTH 570 0
DWIDTH 8 0
BBX 8 15 0 -3
BITMAP
00
00
00
00
3E
20
20
20
3C
20
20
20
00
00
00
ENDCHAR

STARTCHAR G
ENCODING 71
SWIDTH 570 0
DWIDTH 8 0
BBX 8 15 0 -3
BITMAP
00
00
00
00
3C
42
40
4E
42
42
42
3C
00
00
00
ENDCHAR

STARTCHAR H
ENCODING 72
SWIDTH 570 0
DWIDTH 8 0
BBX 8 15 0 -3
BITMAP
00
00
00
00
42
42
42
7E
42
42
42
42
00
00
00
ENDCHAR

STARTCHAR I
ENCODING 73
SWIDTH 570 0
DWIDTH 8 0
BBX 8 15 0 -3
BITMAP
00
00
00
00
3E
08
08
08
08
08
08
3E
00
00
00
ENDCHAR

STARTCHAR J
ENCODING 74
SWIDTH 570 0
DWIDTH 8 0
BBX 8 15 0 -3
BITMAP
00
00
00
00
1E
04
04
04
04
04
44
38
00
00
00
ENDCHAR

STARTCHAR K
ENCODING 75
SWIDTH 570 0
DWIDTH 8 0
BBX 8 15 0 -3
BITMAP
00
00
00
00
22
24
28
30
30
28
24
22
00
00
00
ENDCHAR

STARTCHAR L
ENCODING 76
SWIDTH 570 0
DWIDTH 8 0
BBX 8 15 0 -3
BITMAP
00
00
00
00
20
20
20
20
20
20
20
3E
00
00
00
ENDCHAR

STARTCHAR M
ENCODING 77
SWIDTH 570 0
DWIDTH 8 0
BBX 8 15 0 -3
BITMAP
00
00
00
00
41
63
55
55
49
49
41
41
00
00
00
ENDCHAR

STARTCHAR N
ENCODING 78
SWIDTH 570 0
DWIDTH 8 0
BBX 8 15 0 -3
BITMAP
00
00
00
00
42
62
52
52
4A
4A
46
42
00
00
00
ENDCHAR

STARTCHAR O
ENCODING 79
SWIDTH 570 0
DWIDTH 8 0
BBX 8 15 0 -3
BITMAP
00
00
00
00
3C
42
42
42
42
42
42
3C
00
00
00
ENDCHAR

STARTCHAR P
ENCODING 80
SWIDTH 570 0
DWIDTH 8 0
BBX 8 15 0 -3
BITMAP
00
00
00
00
7C
42
42
42
7C
40
40
40
00
00
00
ENDCHAR

STARTCHAR Q
ENCODING 81
SWIDTH 570 0
DWIDTH 8 0
BBX 8 15 0 -3
BITMAP
00
00
00
00
3C
42
42
42
42
52
4A
3C
02
00
00
ENDCHAR

STARTCHAR R
ENCODING 82
SWIDTH 570 0
DWIDTH 8 0
BBX 8 15 0 -3
BITMAP
00
00
00
00
7C
42
42
42
7C
48
44
42
00
00
00
ENDCHAR

STARTCHAR S
ENCODING 83
SWIDTH 570 0
DWIDTH 8 0
BBX 8 15 0 -3
BITMAP
00
00
00
00
3C
42
40
3C
02
02
42
3C
00
00
00
ENDCHAR

STARTCHAR T
ENCODING 84
SWIDTH 570 0
DWIDTH 8 0
BBX 8 15 0 -3
BITMAP
00
00
00
00
3E
08
08
08
08
08
08
08
00
00
00
ENDCHAR

STARTCHAR U
ENCODING 85
SWIDTH 570 0
DWIDTH 8 0
BBX 8 15 0 -3
BITMAP
00
00
00
00
42
42
42
42
42
42
42
3C
00
00
00
ENDCHAR

STARTCHAR V
ENCODING 86
SWIDTH 570 0
DWIDTH 8 0
BBX 8 15 0 -3
BITMAP
00
00
00
00
41
41
22
22
14
14
08
08
00
00
00
ENDCHAR

STARTCHAR W
ENCODING 87
SWIDTH 570 0
DWIDTH 8 0
BBX 8 15 0 -3
BITMAP
00
00
00
00
41
41
41
49
49
49
49
36
00
00
00
ENDCHAR

STARTCHAR X
ENCODING 88
SWIDTH 570 0
DWIDTH 8 0
BBX 8 15 0 -3
BITMAP
00
00
00
00
63
22
14
08
08
14
22
63
00
00
00
ENDCHAR

STARTCHAR Y
ENCODING 89
SWIDTH 570 0
DWIDTH 8 0
BBX 8 15 0 -3
BITMAP
00
00
00
00
41
41
22
14
08
08
08
08
00
00
00
ENDCHAR

STARTCHAR Z
ENCODING 90
SWIDTH 570 0
DWIDTH 8 0
BBX 8 15 0 -3
BITMAP
00
00
00
00
7E
02
04
08
10
20
40
7E
00
00
00
ENDCHAR

STARTCHAR bracketleft
ENCODING 91
SWIDTH 570 0
DWIDTH 8 0
BBX 8 15 0 -3
BITMAP
00
00
00
1C
10
10
10
10
10
10
10
10
1C
00
00
ENDCHAR

STARTCHAR backslash
ENCODING 92
SWIDTH 570 0
DWIDTH 8 0
BBX 8 15 0 -3
BITMAP
00
00
00
20
20
10
10
10
08
08
08
04
04
00
00
ENDCHAR

STARTCHAR bracketright
ENCODING 93
SWIDTH 570 0
DWIDTH 8 0
BBX 8 15 0 -3
BITMAP
00
00
00
38
08
08
08
08
08
08
08
08
38
00
00
ENDCHAR

STARTCHAR asciicircum
ENCODING 94
SWIDTH 570 0
DWIDTH 8 0
BBX 8 15 0 -3
BITMAP
00
00
00
00
00
00
08
14
22
00
00
00
00
00
00
ENDCHAR

STARTCHAR ldblank
ENCODING 95
SWIDTH 570 0
DWIDTH 8 0
BBX 8 15 0 -3
BITMAP
00
00
00
00
00
00
00
00
00
00
00
00
00
00
00
ENDCHAR

STARTCHAR diamond
ENCODING 96
SWIDTH 570 0
DWIDTH 8 0
BBX 8 15 0 -3
BITMAP
00
00
00
08
1C
3E
7F
3E
1C
08
00
00
00
00
00
ENDCHAR

STARTCHAR checkerboard
ENCODING 97
SWIDTH 570 0
DWIDTH 8 0
BBX 8 15 0 -3
BITMAP
AA
55
AA
55
AA
55
AA
55
AA
55
AA
55
AA
55
AA
ENDCHAR

STARTCHAR HT
ENCODING 98
SWIDTH 570 0
DWIDTH 8 0
BBX 8 15 0 -3
BITMAP
00
00
48
48
78
48
48
00
3E
08
08
08
08
00
00
ENDCHAR

STARTCHAR FF
ENCODING 99
SWIDTH 570 0
DWIDTH 8 0
BBX 8 15 0 -3
BITMAP
00
00
78
40
70
40
40
00
1E
10
1C
10
10
00
00
ENDCHAR

STARTCHAR CR
ENCODING 100
SWIDTH 570 0
DWIDTH 8 0
BBX 8 15 0 -3
BITMAP
00
00
38
40
40
40
38
00
3C
22
3C
24
22
00
00
ENDCHAR

STARTCHAR LF
ENCODING 101
SWIDTH 570 0
DWIDTH 8 0
BBX 8 15 0 -3
BITMAP
00
00
40
40
40
40
78
00
1E
10
1C
10
10
00
00
ENDCHAR

STARTCHAR degree
ENCODING 102
SWIDTH 570 0
DWIDTH 8 0
BBX 8 15 0 -3
BITMAP
00
00
00
10
28
10
00
00
00
00
00
00
00
00
00
ENDCHAR

STARTCHAR plusminus
ENCODING 103
SWIDTH 570 0
DWIDTH 8 0
BBX 8 15 0 -3
BITMAP
00
00
00
00
00
08
08
3E
08
08
00
3E
00
00
00
ENDCHAR

STARTCHAR NL
ENCODING 104
SWIDTH 570 0
DWIDTH 8 0
BBX 8 15 0 -3
BITMAP
00
00
44
64
54
4C
44
00
10
10
10
10
1E
00
00
ENDCHAR

STARTCHAR VT
ENCODING 105
SWIDTH 570 0
DWIDTH 8 0
BBX 8 15 0 -3
BITMAP
00
00
44
44
44
28
10
00
3E
08
08
08
08
00
00
ENDCHAR

STARTCHAR ldcornsqlr
ENCODING 106
SWIDTH 570 0
DWIDTH 8 0
BBX 8 15 0 -3
BITMAP
08
08
08
08
08
08
08
F8
00
00
00
00
00
00
00
ENDCHAR

STARTCHAR ldcornsqur
ENCODING 107
SWIDTH 570 0
DWIDTH 8 0
BBX 8 15 0 -3
BITMAP
00
00
00
00
00
00
00
F8
08
08
08
08
08
08
08
ENDCHAR

STARTCHAR ldcornsqul
ENCODING 108
SWIDTH 570 0
DWIDTH 8 0
BBX 8 15 0 -3
BITMAP
00
00
00
00
00
00
00
0F
08
08
08
08
08
08
08
ENDCHAR

STARTCHAR ldcornsqll
ENCODING 109
SWIDTH 570 0
DWIDTH 8 0
BBX 8 15 0 -3
BITMAP
08
08
08
08
08
08
08
0F
00
00
00
00
00
00
00
ENDCHAR

STARTCHAR ldcross
ENCODING 110
SWIDTH 570 0
DWIDTH 8 0
BBX 8 15 0 -3
BITMAP
08
08
08
08
08
08
08
FF
08
08
08
08
08
08
08
ENDCHAR

STARTCHAR ldscan1
ENCODING 111
SWIDTH 570 0
DWIDTH 8 0
BBX 8 15 0 -3
BITMAP
00
00
FF
00
00
00
00
00
00
00
00
00
00
00
00
ENDCHAR

STARTCHAR ldscan3
ENCODING 112
SWIDTH 570 0
DWIDTH 8 0
BBX 8 15 0 -3
BITMAP
00
00
00
00
00
FF
00
00
00
00
00
00
00
00
00
ENDCHAR

STARTCHAR ldhorizontal
ENCODING 113
SWIDTH 570 0
DWIDTH 8 0
BBX 8 15 0 -3
BITMAP
00
00
00
00
00
00
00
FF
00
00
00
00
00
00
00
ENDCHAR

STARTCHAR ldscan7
ENCODING 114
SWIDTH 570 0
DWIDTH 8 0
BBX 8 15 0 -3
BITMAP
00
00
00
00
00
00
00
00
00
00
FF
00
00
00
00
ENDCHAR

STARTCHAR ldscan9
ENCODING 115
SWIDTH 570 0
DWIDTH 8 0
BBX 8 15 0 -3
BITMAP
00
00
00
00
00
00
00
00
00
00
00
00
00
FF
00
ENDCHAR

STARTCHAR ldteelft
ENCODING 116
SWIDTH 570 0
DWIDTH 8 0
BBX 8 15 0 -3
BITMAP
08
08
08
08
08
08
08
0F
08
08
08
08
08
08
08
ENDCHAR

STARTCHAR ldteert
ENCODING 117
SWIDTH 570 0
DWIDTH 8 0
BBX 8 15 0 -3
BITMAP
08
08
08
08
08
08
08
F8
08
08
08
08
08
08
08
ENDCHAR

STARTCHAR ldteebt
ENCODING 118
SWIDTH 570 0
DWIDTH 8 0
BBX 8 15 0 -3
BITMAP
08
08
08
08
08
08
08
FF
00
00
00
00
00
00
00
ENDCHAR

STARTCHAR ldteetp
ENCODING 119
SWIDTH 570 0
DWIDTH 8 0
BBX 8 15 0 -3
BITMAP
00
00
00
00
00
00
00
FF
08
08
08
08
08
08
08
ENDCHAR

STARTCHAR ldvertical
ENCODING 120
SWIDTH 570 0
DWIDTH 8 0
BBX 8 15 0 -3
BITMAP
08
08
08
08
08
08
08
08
08
08
08
08
08
08
08
ENDCHAR

STARTCHAR lessequal
ENCODING 121
SWIDTH 570 0
DWIDTH 8 0
BBX 8 15 0 -3
BITMAP
00
00
00
04
08
10
20
10
08
04
00
3C
00
00
00
ENDCHAR

STARTCHAR greaterequal
ENCODING 122
SWIDTH 570 0
DWIDTH 8 0
BBX 8 15 0 -3
BITMAP
00
00
00
20
10
08
04
08
10
20
00
3C
00
00
00
ENDCHAR

STARTCHAR pi
ENCODING 123
SWIDTH 570 0
DWIDTH 8 0
BBX 8 15 0 -3
BITMAP
00
00
00
00
00
00
7E
24
24
24
24
44
00
00
00
ENDCHAR

STARTCHAR notequal
ENCODING 124
SWIDTH 570 0
DWIDTH 8 0
BBX 8 15 0 -3
BITMAP
00
00
00
00
00
00
04
7E
18
7E
20
00
00
00
00
ENDCHAR

STARTCHAR sterling
ENCODING 125
SWIDTH 570 0
DWIDTH 8 0
BBX 8 15 0 -3
BITMAP
00
00
00
00
0C
12
12
10
3C
10
31
6E
00
00
00
ENDCHAR

STARTCHAR periodcentered
ENCODING 126
SWIDTH 570 0
DWIDTH 8 0
BBX 8 15 0 -3
BITMAP
00
00
00
00
00
00
10
10
00
00
00
00
00
00
00
ENDCHAR

STARTCHAR Error
ENCODING 159
SWIDTH 570 0
DWIDTH 8 0
BBX 8 15 0 -3
BITMAP
3C
7E
66
66
60
30
18
18
18
18
00
00
18
18
18
ENDCHAR

STARTCHAR space
ENCODING 160
SWIDTH 570 0
DWIDTH 8 0
BBX 8 15 0 -3
BITMAP
00
00
00
00
00
00
00
00
00
00
00
00
00
00
00
ENDCHAR

STARTCHAR ldradicalbt
ENCODING 161
SWIDTH 570 0
DWIDTH 8 0
BBX 8 15 0 -3
BITMAP
08
08
08
08
08
08
08
08
08
68
18
08
00
00
00
ENDCHAR

STARTCHAR ldradicaltp
ENCODING 162
SWIDTH 570 0
DWIDTH 8 0
BBX 8 15 0 -3
BITMAP
00
00
00
00
00
00
00
0F
08
08
08
08
08
08
08
ENDCHAR

STARTCHAR ldhorizontal
ENCODING 163
SWIDTH 570 0
DWIDTH 8 0
BBX 8 15 0 -3
BITMAP
00
00
00
00
00
00
00
FF
00
00
00
00
00
00
00
ENDCHAR

STARTCHAR ldintegraltp
ENCODING 164
SWIDTH 570 0
DWIDTH 8 0
BBX 8 15 0 -3
BITMAP
00
00
00
00
06
09
08
08
08
08
08
08
08
08
08
ENDCHAR

STARTCHAR ldintegralbt
ENCODING 165
SWIDTH 570 0
DWIDTH 8 0
BBX 8 15 0 -3
BITMAP
08
08
08
08
08
08
08
08
08
48
30
00
00
00
00
ENDCHAR

STARTCHAR ldvertical
ENCODING 166
SWIDTH 570 0
DWIDTH 8 0
BBX 8 15 0 -3
BITMAP
08
08
08
08
08
08
08
08
08
08
08
08
08
08
08
ENDCHAR

STARTCHAR ldbracketlfttp
ENCODING 167
SWIDTH 570 0
DWIDTH 8 0
BBX 8 15 0 -3
BITMAP
00
0F
08
08
08
08
08
08
08
08
08
08
08
08
08
ENDCHAR

STARTCHAR ldbracketlftbt
ENCODING 168
SWIDTH 570 0
DWIDTH 8 0
BBX 8 15 0 -3
BITMAP
08
08
08
08
08
08
08
08
08
08
08
08
08
0F
00
ENDCHAR

STARTCHAR ldbracketrttp
ENCODING 169
SWIDTH 570 0
DWIDTH 8 0
BBX 8 15 0 -3
BITMAP
00
78
08
08
08
08
08
08
08
08
08
08
08
08
08
ENDCHAR

STARTCHAR ldbracketrtbt
ENCODING 170
SWIDTH 570 0
DWIDTH 8 0
BBX 8 15 0 -3
BITMAP
08
08
08
08
08
08
08
08
08
08
08
08
08
78
00
ENDCHAR

STARTCHAR ldbracelfttp
ENCODING 171
SWIDTH 570 0
DWIDTH 8 0
BBX 8 15 0 -3
BITMAP
00
07
08
08
08
08
08
08
08
08
08
08
08
08
08
ENDCHAR

STARTCHAR ldbracelftbt
ENCODING 172
SWIDTH 570 0
DWIDTH 8 0
BBX 8 15 0 -3
BITMAP
08
08
08
08
08
08
08
08
08
08
08
08
08
07
00
ENDCHAR

STARTCHAR ldbracerttp
ENCODING 173
SWIDTH 570 0
DWIDTH 8 0
BBX 8 15 0 -3
BITMAP
00
70
08
08
08
08
08
08
08
08
08
08
08
08
08
ENDCHAR

STARTCHAR ldbracertbt
ENCODING 174
SWIDTH 570 0
DWIDTH 8 0
BBX 8 15 0 -3
BITMAP
08
08
08
08
08
08
08
08
08
08
08
08
08
70
00
ENDCHAR

STARTCHAR ldbracelftmid
ENCODING 175
SWIDTH 570 0
DWIDTH 8 0
BBX 8 15 0 -3
BITMAP
08
08
08
08
08
08
10
20
10
08
08
08
08
08
08
ENDCHAR

STARTCHAR ldbracertmid
ENCODING 176
SWIDTH 570 0
DWIDTH 8 0
BBX 8 15 0 -3
BITMAP
08
08
08
08
08
08
04
02
04
08
08
08
08
08
08
ENDCHAR

STARTCHAR ldsigmalfttp
ENCODING 177
SWIDTH 570 0
DWIDTH 8 0
BBX 8 15 0 -3
BITMAP
00
00
00
00
00
00
00
0F
08
04
04
02
02
01
01
ENDCHAR

STARTCHAR ldsigmalftbt
ENCODING 178
SWIDTH 570 0
DWIDTH 8 0
BBX 8 15 0 -3
BITMAP
01
01
02
02
04
04
08
0F
00
00
00
00
00
00
00
ENDCHAR

STARTCHAR ldbackslash
ENCODING 179
SWIDTH 570 0
DWIDTH 8 0
BBX 8 15 0 -3
BITMAP
80
80
40
40
20
20
10
08
08
04
04
02
02
01
01
ENDCHAR

STARTCHAR ldslash
ENCODING 180
SWIDTH 570 0
DWIDTH 8 0
BBX 8 15 0 -3
BITMAP
01
01
02
02
04
04
08
08
10
20
20
40
40
80
80
ENDCHAR

STARTCHAR ldsigmarttp
ENCODING 181
SWIDTH 570 0
DWIDTH 8 0
BBX 8 15 0 -3
BITMAP
00
00
00
00
00
00
00
FE
02
02
00
00
00
00
00
ENDCHAR

STARTCHAR ldsigmartbt
ENCODING 182
SWIDTH 570 0
DWIDTH 8 0
BBX 8 15 0 -3
BITMAP
00
00
00
00
00
02
02
FE
00
00
00
00
00
00
00
ENDCHAR

STARTCHAR ldsigmamid
ENCODING 183
SWIDTH 570 0
DWIDTH 8 0
BBX 8 15 0 -3
BITMAP
80
80
40
40
20
20
10
10
10
20
20
40
40
80
80
ENDCHAR

STARTCHAR lessequal
ENCODING 188
SWIDTH 570 0
DWIDTH 8 0
BBX 8 15 0 -3
BITMAP
00
00
00
04
08
10
20
10
08
04
00
3C
00
00
00
ENDCHAR

STARTCHAR notequal
ENCODING 189
SWIDTH 570 0
DWIDTH 8 0
BBX 8 15 0 -3
BITMAP
00
00
00
00
00
00
04
7E
18
7E
20
00
00
00
00
ENDCHAR

STARTCHAR greaterequal
ENCODING 190
SWIDTH 570 0
DWIDTH 8 0
BBX 8 15 0 -3
BITMAP
00
00
00
20
10
08
04
08
10
20
00
3C
00
00
00
ENDCHAR

STARTCHAR integral
ENCODING 191
SWIDTH 570 0
DWIDTH 8 0
BBX 8 15 0 -3
BITMAP
00
04
0A
08
08
08
08
08
08
08
08
28
10
00
00
ENDCHAR

STARTCHAR therefore
ENCODING 192
SWIDTH 570 0
DWIDTH 8 0
BBX 8 15 0 -3
BITMAP
00
00
00
00
00
08
00
00
00
00
22
00
00
00
00
ENDCHAR

STARTCHAR proportional
ENCODING 193
SWIDTH 570 0
DWIDTH 8 0
BBX 8 15 0 -3
BITMAP
00
00
00
00
00
00
22
54
48
54
22
00
00
00
00
ENDCHAR

STARTCHAR infinity
ENCODING 194
SWIDTH 570 0
DWIDTH 8 0
BBX 8 15 0 -3
BITMAP
00
00
00
00
00
00
2C
52
52
52
2C
00
00
00
00
ENDCHAR

STARTCHAR divide
ENCODING 195
SWIDTH 570 0
DWIDTH 8 0
BBX 8 15 0 -3
BITMAP
00
00
00
00
00
00
08
00
3E
00
08
00
00
00
00
ENDCHAR

STARTCHAR Delta
ENCODING 196
SWIDTH 570 0
DWIDTH 8 0
BBX 8 15 0 -3
BITMAP
00
00
00
00
00
00
08
14
22
22
3E
00
00
00
00
ENDCHAR

STARTCHAR gradient
ENCODING 197
SWIDTH 570 0
DWIDTH 8 0
BBX 8 15 0 -3
BITMAP
00
00
00
00
00
00
3E
22
22
14
08
00
00
00
00
ENDCHAR

STARTCHAR Phi
ENCODING 198
SWIDTH 570 0
DWIDTH 8 0
BBX 8 15 0 -3
BITMAP
00
00
00
00
1C
08
1C
2A
2A
1C
08
1C
00
00
00
ENDCHAR

STARTCHAR Gamma
ENCODING 199
SWIDTH 570 0
DWIDTH 8 0
BBX 8 15 0 -3
BITMAP
00
00
00
00
3E
12
10
10
10
10
10
38
00
00
00
ENDCHAR

STARTCHAR similar
ENCODING 200
SWIDTH 570 0
DWIDTH 8 0
BBX 8 15 0 -3
BITMAP
00
00
00
00
00
00
32
4A
44
00
00
00
00
00
00
ENDCHAR

STARTCHAR approxequal
ENCODING 201
SWIDTH 570 0
DWIDTH 8 0
BBX 8 15 0 -3
BITMAP
00
00
00
00
00
00
32
4A
44
00
7E
00
00
00
00
ENDCHAR

STARTCHAR Theta
ENCODING 202
SWIDTH 570 0
DWIDTH 8 0
BBX 8 15 0 -3
BITMAP
00
00
00
00
18
24
42
5A
42
42
24
18
00
00
00
ENDCHAR

STARTCHAR multiply
ENCODING 203
SWIDTH 570 0
DWIDTH 8 0
BBX 8 15 0 -3
BITMAP
00
00
00
00
00
00
22
14
08
14
22
00
00
00
00
ENDCHAR

STARTCHAR Lambda
ENCODING 204
SWIDTH 570 0
DWIDTH 8 0
BBX 8 15 0 -3
BITMAP
00
00
00
00
08
14
22
22
22
22
22
63
00
00
00
ENDCHAR

STARTCHAR arrowdblboth
ENCODING 205
SWIDTH 570 0
DWIDTH 8 0
BBX 8 15 0 -3
BITMAP
00
00
00
00
24
42
7E
C3
7E
42
24
00
00
00
00
ENDCHAR

STARTCHAR arrowdblright
ENCODING 206
SWIDTH 570 0
DWIDTH 8 0
BBX 8 15 0 -3
BITMAP
00
00
00
00
08
04
7E
01
7E
04
08
00
00
00
00
ENDCHAR

STARTCHAR equivalence
ENCODING 207
SWIDTH 570 0
DWIDTH 8 0
BBX 8 15 0 -3
BITMAP
00
00
00
00
00
00
7E
00
7E
00
7E
00
00
00
00
ENDCHAR

STARTCHAR Pi
ENCODING 208
SWIDTH 570 0
DWIDTH 8 0
BBX 8 15 0 -3
BITMAP
00
00
00
00
7E
24
24
24
24
24
24
24
00
00
00
ENDCHAR

STARTCHAR Psi
ENCODING 209
SWIDTH 570 0
DWIDTH 8 0
BBX 8 15 0 -3
BITMAP
00
00
00
00
6B
2A
2A
2A
1C
08
08
1C
00
00
00
ENDCHAR

STARTCHAR Sigma
ENCODING 211
SWIDTH 570 0
DWIDTH 8 0
BBX 8 15 0 -3
BITMAP
00
00
00
00
7E
22
10
08
10
20
42
7E
00
00
00
ENDCHAR

STARTCHAR radica0l
ENCODING 214
SWIDTH 570 0
DWIDTH 8 0
BBX 8 15 0 -3
BITMAP
00
00
00
03
02
02
04
04
08
48
28
10
00
00
00
ENDCHAR

STARTCHAR Omega
ENCODING 215
SWIDTH 570 0
DWIDTH 8 0
BBX 8 15 0 -3
BITMAP
00
00
00
00
1C
22
41
41
41
22
22
63
00
00
00
ENDCHAR

STARTCHAR Xi
ENCODING 216
SWIDTH 570 0
DWIDTH 8 0
BBX 8 15 0 -3
BITMAP
00
00
00
00
7E
00
00
3C
00
00
00
7E
00
00
00
ENDCHAR

STARTCHAR Upsilon1
ENCODING 217
SWIDTH 570 0
DWIDTH 8 0
BBX 8 15 0 -3
BITMAP
00
00
00
00
41
41
22
14
08
08
08
08
00
00
00
ENDCHAR

STARTCHAR propersubset
ENCODING 218
SWIDTH 570 0
DWIDTH 8 0
BBX 8 15 0 -3
BITMAP
00
00
00
00
00
00
3E
40
40
40
3E
00
00
00
00
ENDCHAR

STARTCHAR propersuperset
ENCODING 219
SWIDTH 570 0
DWIDTH 8 0
BBX 8 15 0 -3
BITMAP
00
00
00
00
00
00
7C
02
02
02
7C
00
00
00
00
ENDCHAR

STARTCHAR intersection
ENCODING 220
SWIDTH 570 0
DWIDTH 8 0
BBX 8 15 0 -3
BITMAP
00
00
00
00
00
00
1C
22
22
22
22
22
00
00
00
ENDCHAR

STARTCHAR union
ENCODING 221
SWIDTH 570 0
DWIDTH 8 0
BBX 8 15 0 -3
BITMAP
00
00
00
00
00
00
22
22
22
22
22
1C
00
00
00
ENDCHAR

STARTCHAR logicaland
ENCODING 222
SWIDTH 570 0
DWIDTH 8 0
BBX 8 15 0 -3
BITMAP
00
00
00
00
00
00
08
14
14
22
22
22
00
00
00
ENDCHAR

STARTCHAR logicalor
ENCODING 223
SWIDTH 570 0
DWIDTH 8 0
BBX 8 15 0 -3
BITMAP
00
00
00
00
00
00
22
22
22
14
14
08
00
00
00
ENDCHAR

STARTCHAR logicalnot
ENCODING 224
SWIDTH 570 0
DWIDTH 8 0
BBX 8 15 0 -3
BITMAP
00
00
00
00
00
00
00
00
7E
02
02
00
00
00
00
ENDCHAR

STARTCHAR alpha
ENCODING 225
SWIDTH 570 0
DWIDTH 8 0
BBX 8 15 0 -3
BITMAP
00
00
00
00
00
00
10
29
46
44
4A
31
00
00
00
ENDCHAR

STARTCHAR beta
ENCODING 226
SWIDTH 570 0
DWIDTH 8 0
BBX 8 15 0 -3
BITMAP
00
00
00
04
0A
0A
12
1C
22
22
62
5C
00
00
00
ENDCHAR

STARTCHAR chi
ENCODING 227
SWIDTH 570 0
DWIDTH 8 0
BBX 8 15 0 -3
BITMAP
00
00
00
00
00
00
22
54
08
18
24
44
42
00
00
ENDCHAR

STARTCHAR delta
ENCODING 228
SWIDTH 570 0
DWIDTH 8 0
BBX 8 15 0 -3
BITMAP
00
00
00
00
1C
20
38
44
44
44
44
38
00
00
00
ENDCHAR

STARTCHAR epsilon
ENCODING 229
SWIDTH 570 0
DWIDTH 8 0
BBX 8 15 0 -3
BITMAP
00
00
00
00
00
00
3C
40
78
40
40
3C
00
00
00
ENDCHAR

STARTCHAR phi
ENCODING 230
SWIDTH 570 0
DWIDTH 8 0
BBX 8 15 0 -3
BITMAP
00
00
00
00
00
08
3C
4A
4A
52
52
3C
10
00
00
ENDCHAR

STARTCHAR gamma
ENCODING 231
SWIDTH 570 0
DWIDTH 8 0
BBX 8 15 0 -3
BITMAP
00
00
00
00
00
00
21
52
12
14
08
08
08
08
00
ENDCHAR

STARTCHAR eta
ENCODING 232
SWIDTH 570 0
DWIDTH 8 0
BBX 8 15 0 -3
BITMAP
00
00
00
00
00
00
6C
32
22
22
22
22
02
00
00
ENDCHAR

STARTCHAR iota
ENCODING 233
SWIDTH 570 0
DWIDTH 8 0
BBX 8 15 0 -3
BITMAP
00
00
00
00
00
00
10
10
10
10
12
0C
00
00
00
ENDCHAR

STARTCHAR theta
ENCODING 234
SWIDTH 570 0
DWIDTH 8 0
BBX 8 15 0 -3
BITMAP
00
00
00
00
1C
22
22
3E
22
22
22
1C
00
00
00
ENDCHAR

STARTCHAR kappa
ENCODING 235
SWIDTH 570 0
DWIDTH 8 0
BBX 8 15 0 -3
BITMAP
00
00
00
00
00
00
66
28
30
28
24
26
00
00
00
ENDCHAR

STARTCHAR lambda
ENCODING 236
SWIDTH 570 0
DWIDTH 8 0
BBX 8 15 0 -3
BITMAP
00
00
00
00
30
08
08
0C
14
12
22
62
00
00
00
ENDCHAR

STARTCHAR nu
ENCODING 238
SWIDTH 570 0
DWIDTH 8 0
BBX 8 15 0 -3
BITMAP
00
00
00
00
00
00
62
22
24
24
28
30
00
00
00
ENDCHAR

STARTCHAR partialdiff
ENCODING 239
SWIDTH 570 0
DWIDTH 8 0
BBX 8 15 0 -3
BITMAP
00
00
00
00
18
04
1C
22
22
22
22
1C
00
00
00
ENDCHAR

STARTCHAR pi
ENCODING 240
SWIDTH 570 0
DWIDTH 8 0
BBX 8 15 0 -3
BITMAP
00
00
00
00
00
00
7E
24
24
24
24
44
00
00
00
ENDCHAR

STARTCHAR psi
ENCODING 241
SWIDTH 570 0
DWIDTH 8 0
BBX 8 15 0 -3
BITMAP
00
00
00
00
00
00
49
49
2A
1C
08
08
08
00
00
ENDCHAR

STARTCHAR rho
ENCODING 242
SWIDTH 570 0
DWIDTH 8 0
BBX 8 15 0 -3
BITMAP
00
00
00
00
00
00
0C
12
22
22
22
3C
40
40
00
ENDCHAR

STARTCHAR sigma
ENCODING 243
SWIDTH 570 0
DWIDTH 8 0
BBX 8 15 0 -3
BITMAP
00
00
00
00
00
00
1F
24
44
44
48
30
00
00
00
ENDCHAR

STARTCHAR tau
ENCODING 244
SWIDTH 570 0
DWIDTH 8 0
BBX 8 15 0 -3
BITMAP
00
00
00
00
00
00
3E
48
10
10
10
0C
00
00
00
ENDCHAR

STARTCHAR florin
ENCODING 246
SWIDTH 570 0
DWIDTH 8 0
BBX 8 15 0 -3
BITMAP
00
00
0C
12
10
10
3C
10
10
10
10
50
50
20
00
ENDCHAR

STARTCHAR omega
ENCODING 247
SWIDTH 570 0
DWIDTH 8 0
BBX 8 15 0 -3
BITMAP
00
00
00
00
00
00
44
82
92
92
92
6C
00
00
00
ENDCHAR

STARTCHAR xi
ENCODING 248
SWIDTH 570 0
DWIDTH 8 0
BBX 8 15 0 -3
BITMAP
00
00
00
20
1C
20
20
1C
20
40
40
3C
02
04
00
ENDCHAR

STARTCHAR upsilon
ENCODING 249
SWIDTH 570 0
DWIDTH 8 0
BBX 8 15 0 -3
BITMAP
00
00
00
00
00
40
22
22
22
24
24
18
00
00
00
ENDCHAR

STARTCHAR zeta
ENCODING 250
SWIDTH 570 0
DWIDTH 8 0
BBX 8 15 0 -3
BITMAP
00
00
00
20
1C
20
20
40
40
40
40
38
04
08
00
ENDCHAR

STARTCHAR arrowleft
ENCODING 251
SWIDTH 570 0
DWIDTH 8 0
BBX 8 15 0 -3
BITMAP
00
00
00
00
00
10
20
7F
20
10
00
00
00
00
00
ENDCHAR

STARTCHAR arrowup
ENCODING 252
SWIDTH 570 0
DWIDTH 8 0
BBX 8 15 0 -3
BITMAP
00
00
00
00
10
38
54
10
10
10
10
10
10
00
00
ENDCHAR

STARTCHAR arrowright
ENCODING 253
SWIDTH 570 0
DWIDTH 8 0
BBX 8 15 0 -3
BITMAP
00
00
00
00
00
08
04
FE
04
08
00
00
00
00
00
ENDCHAR

STARTCHAR arrowdown
ENCODING 254
SWIDTH 570 0
DWIDTH 8 0
BBX 8 15 0 -3
BITMAP
00
00
00
00
10
10
10
10
10
10
54
38
10
00
00
ENDCHAR

ENDFONT
