STARTFONT 2.1
FONT -DEC-Terminal-Medium-R-Normal--14-140-75-75-C-80-ISO8859-1
SIZE 14 75 75
FONTBOUNDINGBOX 8 15 0 -3

STARTPROPERTIES 24
FOUNDRY "DEC"
FAMILY_NAME "Terminal"
WEIGHT_NAME "Medium"
SLANT "R"
SETWIDTH_NAME "Normal"
ADD_STYLE_NAME ""
PIXEL_SIZE 14
POINT_SIZE 140
RESOLUTION_X 75
RESOLUTION_Y 75
SPACING "C"
AVERAGE_WIDTH 80
CHARSET_REGISTRY "ISO8859"
CHARSET_ENCODING "1"
CAP_HEIGHT 8
X_HEIGHT 6
COPYRIGHT "Copyright (c) 1991 Digital Equipment Corporation. All Rights Reserved."
_DEC_PRODUCTINFO "DECterm Fonts V2.2, 11-Nov-1991"
FULL_NAME "Terminal"
WEIGHT 10
QUAD_WIDTH 8
DEFAULT_CHAR 159
FONT_DESCENT 3
FONT_ASCENT 12
ENDPROPERTIES

CHARS 195

STARTCHAR space
ENCODING 32
SWIDTH 570 0
DWIDTH 8 0
BBX 8 15 0 -3
BITMAP
00
00
00
00
00
00
00
00
00
00
00
00
00
00
00
ENDCHAR

STARTCHAR exclam
ENCODING 33
SWIDTH 570 0
DWIDTH 8 0
BBX 8 15 0 -3
BITMAP
00
00
00
00
10
10
10
10
10
00
10
10
00
00
00
ENDCHAR

STARTCHAR quotedbl
ENCODING 34
SWIDTH 570 0
DWIDTH 8 0
BBX 8 15 0 -3
BITMAP
00
00
00
24
24
24
00
00
00
00
00
00
00
00
00
ENDCHAR

STARTCHAR numbersign
ENCODING 35
SWIDTH 570 0
DWIDTH 8 0
BBX 8 15 0 -3
BITMAP
00
00
00
00
24
24
7E
24
7E
24
24
00
00
00
00
ENDCHAR

STARTCHAR dollar
ENCODING 36
SWIDTH 570 0
DWIDTH 8 0
BBX 8 15 0 -3
BITMAP
00
00
00
00
08
1C
2A
18
0C
2A
1C
08
00
00
00
ENDCHAR

STARTCHAR percent
ENCODING 37
SWIDTH 570 0
DWIDTH 8 0
BBX 8 15 0 -3
BITMAP
00
00
00
00
24
5C
28
08
10
14
2A
24
00
00
00
ENDCHAR

STARTCHAR ampersand
ENCODING 38
SWIDTH 570 0
DWIDTH 8 0
BBX 8 15 0 -3
BITMAP
00
00
00
00
10
28
28
10
2A
44
44
3A
00
00
00
ENDCHAR

STARTCHAR quoteright
ENCODING 39
SWIDTH 570 0
DWIDTH 8 0
BBX 8 15 0 -3
BITMAP
00
00
00
08
08
10
00
00
00
00
00
00
00
00
00
ENDCHAR

STARTCHAR parenleft
ENCODING 40
SWIDTH 570 0
DWIDTH 8 0
BBX 8 15 0 -3
BITMAP
00
00
00
04
08
08
10
10
10
10
08
08
04
00
00
ENDCHAR

STARTCHAR parenright
ENCODING 41
SWIDTH 570 0
DWIDTH 8 0
BBX 8 15 0 -3
BITMAP
00
00
00
20
10
10
08
08
08
08
10
10
20
00
00
ENDCHAR

STARTCHAR asterisk
ENCODING 42
SWIDTH 570 0
DWIDTH 8 0
BBX 8 15 0 -3
BITMAP
00
00
00
00
08
2A
1C
1C
2A
08
00
00
00
00
00
ENDCHAR

STARTCHAR plus
ENCODING 43
SWIDTH 570 0
DWIDTH 8 0
BBX 8 15 0 -3
BITMAP
00
00
00
00
00
00
08
08
3E
08
08
00
00
00
00
ENDCHAR

STARTCHAR comma
ENCODING 44
SWIDTH 570 0
DWIDTH 8 0
BBX 8 15 0 -3
BITMAP
00
00
00
00
00
00
00
00
00
00
08
08
10
00
00
ENDCHAR

STARTCHAR minus
ENCODING 45
SWIDTH 570 0
DWIDTH 8 0
BBX 8 15 0 -3
BITMAP
00
00
00
00
00
00
00
00
7E
00
00
00
00
00
00
ENDCHAR

STARTCHAR period
ENCODING 46
SWIDTH 570 0
DWIDTH 8 0
BBX 8 15 0 -3
BITMAP
00
00
00
00
00
00
00
00
00
00
10
10
00
00
00
ENDCHAR

STARTCHAR slash
ENCODING 47
SWIDTH 570 0
DWIDTH 8 0
BBX 8 15 0 -3
BITMAP
00
00
00
04
04
08
08
08
10
10
10
20
20
00
00
ENDCHAR

STARTCHAR zero
ENCODING 48
SWIDTH 570 0
DWIDTH 8 0
BBX 8 15 0 -3
BITMAP
00
00
00
00
1C
22
22
22
22
22
22
1C
00
00
00
ENDCHAR

STARTCHAR one
ENCODING 49
SWIDTH 570 0
DWIDTH 8 0
BBX 8 15 0 -3
BITMAP
00
00
00
00
08
18
28
08
08
08
08
3E
00
00
00
ENDCHAR

STARTCHAR two
ENCODING 50
SWIDTH 570 0
DWIDTH 8 0
BBX 8 15 0 -3
BITMAP
00
00
00
00
1C
22
02
04
08
10
20
3E
00
00
00
ENDCHAR

STARTCHAR three
ENCODING 51
SWIDTH 570 0
DWIDTH 8 0
BBX 8 15 0 -3
BITMAP
00
00
00
00
1C
22
02
0C
02
02
22
1C
00
00
00
ENDCHAR

STARTCHAR four
ENCODING 52
SWIDTH 570 0
DWIDTH 8 0
BBX 8 15 0 -3
BITMAP
00
00
00
00
04
0C
14
14
24
3E
04
04
00
00
00
ENDCHAR

STARTCHAR five
ENCODING 53
SWIDTH 570 0
DWIDTH 8 0
BBX 8 15 0 -3
BITMAP
00
00
00
00
3E
20
20
3C
22
02
22
1C
00
00
00
ENDCHAR

STARTCHAR six
ENCODING 54
SWIDTH 570 0
DWIDTH 8 0
BBX 8 15 0 -3
BITMAP
00
00
00
00
0C
10
20
3C
22
22
22
1C
00
00
00
ENDCHAR

STARTCHAR seven
ENCODING 55
SWIDTH 570 0
DWIDTH 8 0
BBX 8 15 0 -3
BITMAP
00
00
00
00
3E
02
04
08
08
10
10
10
00
00
00
ENDCHAR

STARTCHAR eight
ENCODING 56
SWIDTH 570 0
DWIDTH 8 0
BBX 8 15 0 -3
BITMAP
00
00
00
00
1C
22
22
1C
22
22
22
1C
00
00
00
ENDCHAR

STARTCHAR nine
ENCODING 57
SWIDTH 570 0
DWIDTH 8 0
BBX 8 15 0 -3
BITMAP
00
00
00
00
1C
22
22
22
1E
02
04
18
00
00
00
ENDCHAR

STARTCHAR colon
ENCODING 58
SWIDTH 570 0
DWIDTH 8 0
BBX 8 15 0 -3
BITMAP
00
00
00
00
00
00
10
10
00
00
10
10
00
00
00
ENDCHAR

STARTCHAR semicolon
ENCODING 59
SWIDTH 570 0
DWIDTH 8 0
BBX 8 15 0 -3
BITMAP
00
00
00
00
00
00
10
10
00
00
10
10
20
00
00
ENDCHAR

STARTCHAR less
ENCODING 60
SWIDTH 570 0
DWIDTH 8 0
BBX 8 15 0 -3
BITMAP
00
00
00
00
00
04
08
10
20
10
08
04
00
00
00
ENDCHAR

STARTCHAR equal
ENCODING 61
SWIDTH 570 0
DWIDTH 8 0
BBX 8 15 0 -3
BITMAP
00
00
00
00
00
00
00
7E
00
7E
00
00
00
00
00
ENDCHAR

STARTCHAR greater
ENCODING 62
SWIDTH 570 0
DWIDTH 8 0
BBX 8 15 0 -3
BITMAP
00
00
00
00
00
20
10
08
04
08
10
20
00
00
00
ENDCHAR

STARTCHAR question
ENCODING 63
SWIDTH 570 0
DWIDTH 8 0
BBX 8 15 0 -3
BITMAP
00
00
00
00
38
44
08
10
10
00
10
10
00
00
00
ENDCHAR

STARTCHAR at
ENCODING 64
SWIDTH 570 0
DWIDTH 8 0
BBX 8 15 0 -3
BITMAP
00
00
00
00
3C
42
4E
52
52
4E
40
3C
00
00
00
ENDCHAR

STARTCHAR A
ENCODING 65
SWIDTH 570 0
DWIDTH 8 0
BBX 8 15 0 -3
BITMAP
00
00
00
00
18
24
42
42
7E
42
42
42
00
00
00
ENDCHAR

STARTCHAR B
ENCODING 66
SWIDTH 570 0
DWIDTH 8 0
BBX 8 15 0 -3
BITMAP
00
00
00
00
7C
42
42
7C
42
42
42
7C
00
00
00
ENDCHAR

STARTCHAR C
ENCODING 67
SWIDTH 570 0
DWIDTH 8 0
BBX 8 15 0 -3
BITMAP
00
00
00
00
3C
42
40
40
40
40
42
3C
00
00
00
ENDCHAR

STARTCHAR D
ENCODING 68
SWIDTH 570 0
DWIDTH 8 0
BBX 8 15 0 -3
BITMAP
00
00
00
00
7C
42
42
42
42
42
42
7C
00
00
00
ENDCHAR

STARTCHAR E
ENCODING 69
SWIDTH 570 0
DWIDTH 8 0
BBX 8 15 0 -3
BITMAP
00
00
00
00
3E
20
20
3C
20
20
20
3E
00
00
00
ENDCHAR

STARTCHAR F
ENCODING 70
SWIDTH 570 0
DWIDTH 8 0
BBX 8 15 0 -3
BITMAP
00
00
00
00
3E
20
20
20
3C
20
20
20
00
00
00
ENDCHAR

STARTCHAR G
ENCODING 71
SWIDTH 570 0
DWIDTH 8 0
BBX 8 15 0 -3
BITMAP
00
00
00
00
3C
42
40
4E
42
42
42
3C
00
00
00
ENDCHAR

STARTCHAR H
ENCODING 72
SWIDTH 570 0
DWIDTH 8 0
BBX 8 15 0 -3
BITMAP
00
00
00
00
42
42
42
7E
42
42
42
42
00
00
00
ENDCHAR

STARTCHAR I
ENCODING 73
SWIDTH 570 0
DWIDTH 8 0
BBX 8 15 0 -3
BITMAP
00
00
00
00
3E
08
08
08
08
08
08
3E
00
00
00
ENDCHAR

STARTCHAR J
ENCODING 74
SWIDTH 570 0
DWIDTH 8 0
BBX 8 15 0 -3
BITMAP
00
00
00
00
1E
04
04
04
04
04
44
38
00
00
00
ENDCHAR

STARTCHAR K
ENCODING 75
SWIDTH 570 0
DWIDTH 8 0
BBX 8 15 0 -3
BITMAP
00
00
00
00
22
24
28
30
30
28
24
22
00
00
00
ENDCHAR

STARTCHAR L
ENCODING 76
SWIDTH 570 0
DWIDTH 8 0
BBX 8 15 0 -3
BITMAP
00
00
00
00
20
20
20
20
20
20
20
3E
00
00
00
ENDCHAR

STARTCHAR M
ENCODING 77
SWIDTH 570 0
DWIDTH 8 0
BBX 8 15 0 -3
BITMAP
00
00
00
00
41
63
55
55
49
49
41
41
00
00
00
ENDCHAR

STARTCHAR N
ENCODING 78
SWIDTH 570 0
DWIDTH 8 0
BBX 8 15 0 -3
BITMAP
00
00
00
00
42
62
52
52
4A
4A
46
42
00
00
00
ENDCHAR

STARTCHAR O
ENCODING 79
SWIDTH 570 0
DWIDTH 8 0
BBX 8 15 0 -3
BITMAP
00
00
00
00
3C
42
42
42
42
42
42
3C
00
00
00
ENDCHAR

STARTCHAR P
ENCODING 80
SWIDTH 570 0
DWIDTH 8 0
BBX 8 15 0 -3
BITMAP
00
00
00
00
7C
42
42
42
7C
40
40
40
00
00
00
ENDCHAR

STARTCHAR Q
ENCODING 81
SWIDTH 570 0
DWIDTH 8 0
BBX 8 15 0 -3
BITMAP
00
00
00
00
3C
42
42
42
42
52
4A
3C
02
00
00
ENDCHAR

STARTCHAR R
ENCODING 82
SWIDTH 570 0
DWIDTH 8 0
BBX 8 15 0 -3
BITMAP
00
00
00
00
7C
42
42
42
7C
48
44
42
00
00
00
ENDCHAR

STARTCHAR S
ENCODING 83
SWIDTH 570 0
DWIDTH 8 0
BBX 8 15 0 -3
BITMAP
00
00
00
00
3C
42
40
3C
02
02
42
3C
00
00
00
ENDCHAR

STARTCHAR T
ENCODING 84
SWIDTH 570 0
DWIDTH 8 0
BBX 8 15 0 -3
BITMAP
00
00
00
00
3E
08
08
08
08
08
08
08
00
00
00
ENDCHAR

STARTCHAR U
ENCODING 85
SWIDTH 570 0
DWIDTH 8 0
BBX 8 15 0 -3
BITMAP
00
00
00
00
42
42
42
42
42
42
42
3C
00
00
00
ENDCHAR

STARTCHAR V
ENCODING 86
SWIDTH 570 0
DWIDTH 8 0
BBX 8 15 0 -3
BITMAP
00
00
00
00
41
41
22
22
14
14
08
08
00
00
00
ENDCHAR

STARTCHAR W
ENCODING 87
SWIDTH 570 0
DWIDTH 8 0
BBX 8 15 0 -3
BITMAP
00
00
00
00
41
41
41
49
49
49
49
36
00
00
00
ENDCHAR

STARTCHAR X
ENCODING 88
SWIDTH 570 0
DWIDTH 8 0
BBX 8 15 0 -3
BITMAP
00
00
00
00
63
22
14
08
08
14
22
63
00
00
00
ENDCHAR

STARTCHAR Y
ENCODING 89
SWIDTH 570 0
DWIDTH 8 0
BBX 8 15 0 -3
BITMAP
00
00
00
00
41
41
22
14
08
08
08
08
00
00
00
ENDCHAR

STARTCHAR Z
ENCODING 90
SWIDTH 570 0
DWIDTH 8 0
BBX 8 15 0 -3
BITMAP
00
00
00
00
7E
02
04
08
10
20
40
7E
00
00
00
ENDCHAR

STARTCHAR bracketleft
ENCODING 91
SWIDTH 570 0
DWIDTH 8 0
BBX 8 15 0 -3
BITMAP
00
00
00
1C
10
10
10
10
10
10
10
10
1C
00
00
ENDCHAR

STARTCHAR backslash
ENCODING 92
SWIDTH 570 0
DWIDTH 8 0
BBX 8 15 0 -3
BITMAP
00
00
00
20
20
10
10
10
08
08
08
04
04
00
00
ENDCHAR

STARTCHAR bracketright
ENCODING 93
SWIDTH 570 0
DWIDTH 8 0
BBX 8 15 0 -3
BITMAP
00
00
00
38
08
08
08
08
08
08
08
08
38
00
00
ENDCHAR

STARTCHAR asciicircum
ENCODING 94
SWIDTH 570 0
DWIDTH 8 0
BBX 8 15 0 -3
BITMAP
00
00
00
00
00
00
08
14
22
00
00
00
00
00
00
ENDCHAR

STARTCHAR underscore
ENCODING 95
SWIDTH 570 0
DWIDTH 8 0
BBX 8 15 0 -3
BITMAP
00
00
00
00
00
00
00
00
00
00
00
7E
00
00
00
ENDCHAR

STARTCHAR quoteleft
ENCODING 96
SWIDTH 570 0
DWIDTH 8 0
BBX 8 15 0 -3
BITMAP
00
00
00
08
08
04
00
00
00
00
00
00
00
00
00
ENDCHAR

STARTCHAR a
ENCODING 97
SWIDTH 570 0
DWIDTH 8 0
BBX 8 15 0 -3
BITMAP
00
00
00
00
00
00
3C
02
3E
42
42
3D
00
00
00
ENDCHAR

STARTCHAR b
ENCODING 98
SWIDTH 570 0
DWIDTH 8 0
BBX 8 15 0 -3
BITMAP
00
00
00
00
40
40
5C
62
42
42
42
7C
00
00
00
ENDCHAR

STARTCHAR c
ENCODING 99
SWIDTH 570 0
DWIDTH 8 0
BBX 8 15 0 -3
BITMAP
00
00
00
00
00
00
3C
42
40
40
42
3C
00
00
00
ENDCHAR

STARTCHAR d
ENCODING 100
SWIDTH 570 0
DWIDTH 8 0
BBX 8 15 0 -3
BITMAP
00
00
00
00
02
02
3A
46
42
42
42
3E
00
00
00
ENDCHAR

STARTCHAR e
ENCODING 101
SWIDTH 570 0
DWIDTH 8 0
BBX 8 15 0 -3
BITMAP
00
00
00
00
00
00
3C
42
7E
40
42
3C
00
00
00
ENDCHAR

STARTCHAR f
ENCODING 102
SWIDTH 570 0
DWIDTH 8 0
BBX 8 15 0 -3
BITMAP
00
00
00
00
0E
10
10
3C
10
10
10
10
00
00
00
ENDCHAR

STARTCHAR g
ENCODING 103
SWIDTH 570 0
DWIDTH 8 0
BBX 8 15 0 -3
BITMAP
00
00
00
00
00
04
38
44
44
38
40
3C
42
3C
00
ENDCHAR

STARTCHAR h
ENCODING 104
SWIDTH 570 0
DWIDTH 8 0
BBX 8 15 0 -3
BITMAP
00
00
00
00
40
40
5C
62
42
42
42
42
00
00
00
ENDCHAR

STARTCHAR i
ENCODING 105
SWIDTH 570 0
DWIDTH 8 0
BBX 8 15 0 -3
BITMAP
00
00
00
08
08
00
38
08
08
08
08
3E
00
00
00
ENDCHAR

STARTCHAR j
ENCODING 106
SWIDTH 570 0
DWIDTH 8 0
BBX 8 15 0 -3
BITMAP
00
00
00
04
04
00
1C
04
04
04
04
04
44
38
00
ENDCHAR

STARTCHAR k
ENCODING 107
SWIDTH 570 0
DWIDTH 8 0
BBX 8 15 0 -3
BITMAP
00
00
00
00
40
40
44
48
70
48
44
42
00
00
00
ENDCHAR

STARTCHAR l
ENCODING 108
SWIDTH 570 0
DWIDTH 8 0
BBX 8 15 0 -3
BITMAP
00
00
00
00
38
08
08
08
08
08
08
3E
00
00
00
ENDCHAR

STARTCHAR m
ENCODING 109
SWIDTH 570 0
DWIDTH 8 0
BBX 8 15 0 -3
BITMAP
00
00
00
00
00
00
76
49
49
49
41
41
00
00
00
ENDCHAR

STARTCHAR n
ENCODING 110
SWIDTH 570 0
DWIDTH 8 0
BBX 8 15 0 -3
BITMAP
00
00
00
00
00
00
5C
62
42
42
42
42
00
00
00
ENDCHAR

STARTCHAR o
ENCODING 111
SWIDTH 570 0
DWIDTH 8 0
BBX 8 15 0 -3
BITMAP
00
00
00
00
00
00
3C
42
42
42
42
3C
00
00
00
ENDCHAR

STARTCHAR p
ENCODING 112
SWIDTH 570 0
DWIDTH 8 0
BBX 8 15 0 -3
BITMAP
00
00
00
00
00
00
5C
62
42
42
42
7C
40
40
00
ENDCHAR

STARTCHAR q
ENCODING 113
SWIDTH 570 0
DWIDTH 8 0
BBX 8 15 0 -3
BITMAP
00
00
00
00
00
00
3E
42
42
42
46
3A
02
02
00
ENDCHAR

STARTCHAR r
ENCODING 114
SWIDTH 570 0
DWIDTH 8 0
BBX 8 15 0 -3
BITMAP
00
00
00
00
00
00
6E
32
20
20
20
20
00
00
00
ENDCHAR

STARTCHAR s
ENCODING 115
SWIDTH 570 0
DWIDTH 8 0
BBX 8 15 0 -3
BITMAP
00
00
00
00
00
00
3C
42
3C
02
42
3C
00
00
00
ENDCHAR

STARTCHAR t
ENCODING 116
SWIDTH 570 0
DWIDTH 8 0
BBX 8 15 0 -3
BITMAP
00
00
00
00
10
10
3C
10
10
10
12
0C
00
00
00
ENDCHAR

STARTCHAR u
ENCODING 117
SWIDTH 570 0
DWIDTH 8 0
BBX 8 15 0 -3
BITMAP
00
00
00
00
00
00
42
42
42
42
46
3A
00
00
00
ENDCHAR

STARTCHAR v
ENCODING 118
SWIDTH 570 0
DWIDTH 8 0
BBX 8 15 0 -3
BITMAP
00
00
00
00
00
00
22
22
14
14
08
08
00
00
00
ENDCHAR

STARTCHAR w
ENCODING 119
SWIDTH 570 0
DWIDTH 8 0
BBX 8 15 0 -3
BITMAP
00
00
00
00
00
00
41
41
49
49
49
36
00
00
00
ENDCHAR

STARTCHAR x
ENCODING 120
SWIDTH 570 0
DWIDTH 8 0
BBX 8 15 0 -3
BITMAP
00
00
00
00
00
00
66
24
18
18
24
66
00
00
00
ENDCHAR

STARTCHAR y
ENCODING 121
SWIDTH 570 0
DWIDTH 8 0
BBX 8 15 0 -3
BITMAP
00
00
00
00
00
00
63
22
22
14
0C
08
48
30
00
ENDCHAR

STARTCHAR z
ENCODING 122
SWIDTH 570 0
DWIDTH 8 0
BBX 8 15 0 -3
BITMAP
00
00
00
00
00
00
7E
04
08
10
20
7E
00
00
00
ENDCHAR

STARTCHAR braceleft
ENCODING 123
SWIDTH 570 0
DWIDTH 8 0
BBX 8 15 0 -3
BITMAP
00
00
00
0C
10
10
08
30
08
10
10
10
0C
00
00
ENDCHAR

STARTCHAR bar
ENCODING 124
SWIDTH 570 0
DWIDTH 8 0
BBX 8 15 0 -3
BITMAP
00
00
00
10
10
10
10
10
10
10
10
10
10
00
00
ENDCHAR

STARTCHAR braceright
ENCODING 125
SWIDTH 570 0
DWIDTH 8 0
BBX 8 15 0 -3
BITMAP
00
00
00
30
08
08
10
0C
10
08
08
08
30
00
00
ENDCHAR

STARTCHAR asciitilde
ENCODING 126
SWIDTH 570 0
DWIDTH 8 0
BBX 8 15 0 -3
BITMAP
00
00
00
00
00
00
32
4C
00
00
00
00
00
00
00
ENDCHAR

STARTCHAR OE
ENCODING 128
SWIDTH 570 0
DWIDTH 8 0
BBX 8 15 0 -3
BITMAP
00
00
00
00
3F
48
48
4E
48
48
48
3F
00
00
00
ENDCHAR

STARTCHAR oe
ENCODING 129
SWIDTH 570 0
DWIDTH 8 0
BBX 8 15 0 -3
BITMAP
00
00
00
00
00
00
36
49
4F
48
49
36
00
00
00
ENDCHAR

STARTCHAR Ydieresis
ENCODING 130
SWIDTH 570 0
DWIDTH 8 0
BBX 8 15 0 -3
BITMAP
00
24
24
00
41
41
22
14
08
08
08
08
00
00
00
ENDCHAR

STARTCHAR Error
ENCODING 159
SWIDTH 570 0
DWIDTH 8 0
BBX 8 15 0 -3
BITMAP
00
3C
66
42
40
60
30
18
08
08
00
00
08
08
00
ENDCHAR

STARTCHAR space
ENCODING 160
SWIDTH 570 0
DWIDTH 8 0
BBX 8 15 0 -3
BITMAP
00
00
00
00
00
00
00
00
00
00
00
00
00
00
00
ENDCHAR

STARTCHAR exclamdown
ENCODING 161
SWIDTH 570 0
DWIDTH 8 0
BBX 8 15 0 -3
BITMAP
00
00
00
00
08
08
00
08
08
08
08
08
08
00
00
ENDCHAR

STARTCHAR cent
ENCODING 162
SWIDTH 570 0
DWIDTH 8 0
BBX 8 15 0 -3
BITMAP
00
00
00
08
08
1C
2A
28
2A
1C
08
08
00
00
00
ENDCHAR

STARTCHAR sterling
ENCODING 163
SWIDTH 570 0
DWIDTH 8 0
BBX 8 15 0 -3
BITMAP
00
00
00
00
0C
12
12
10
3C
10
31
6E
00
00
00
ENDCHAR

STARTCHAR currency
ENCODING 164
SWIDTH 570 0
DWIDTH 8 0
BBX 8 15 0 -3
BITMAP
00
00
00
00
22
1C
22
22
22
1C
22
00
00
00
00
ENDCHAR

STARTCHAR yen
ENCODING 165
SWIDTH 570 0
DWIDTH 8 0
BBX 8 15 0 -3
BITMAP
00
00
00
00
22
22
14
3E
08
3E
08
08
00
00
00
ENDCHAR

STARTCHAR brokenbar
ENCODING 166
SWIDTH 570 0
DWIDTH 8 0
BBX 8 15 0 -3
BITMAP
00
00
00
10
10
10
10
00
00
10
10
10
10
00
00
ENDCHAR

STARTCHAR section
ENCODING 167
SWIDTH 570 0
DWIDTH 8 0
BBX 8 15 0 -3
BITMAP
00
00
00
1C
22
20
1C
22
22
1C
02
22
1C
00
00
ENDCHAR

STARTCHAR dieresis
ENCODING 168
SWIDTH 570 0
DWIDTH 8 0
BBX 8 15 0 -3
BITMAP
00
00
00
24
24
00
00
00
00
00
00
00
00
00
00
ENDCHAR

STARTCHAR copyright
ENCODING 169
SWIDTH 570 0
DWIDTH 8 0
BBX 8 15 0 -3
BITMAP
00
00
00
00
3E
41
4D
51
51
4D
41
3E
00
00
00
ENDCHAR

STARTCHAR ordfeminine
ENCODING 170
SWIDTH 570 0
DWIDTH 8 0
BBX 8 15 0 -3
BITMAP
00
00
00
00
30
08
38
48
38
00
78
00
00
00
00
ENDCHAR

STARTCHAR guillemotleft
ENCODING 171
SWIDTH 570 0
DWIDTH 8 0
BBX 8 15 0 -3
BITMAP
00
00
00
00
00
00
12
24
48
24
12
00
00
00
00
ENDCHAR

STARTCHAR logicalnot
ENCODING 172
SWIDTH 570 0
DWIDTH 8 0
BBX 8 15 0 -3
BITMAP
00
00
00
00
00
00
00
7E
02
00
00
00
00
00
00
ENDCHAR

STARTCHAR hyphen
ENCODING 173
SWIDTH 570 0
DWIDTH 8 0
BBX 8 15 0 -3
BITMAP
00
00
00
00
00
00
00
00
3C
00
00
00
00
00
00
ENDCHAR

STARTCHAR registered
ENCODING 174
SWIDTH 570 0
DWIDTH 8 0
BBX 8 15 0 -3
BITMAP
00
00
00
00
3E
41
59
55
59
55
41
3E
00
00
00
ENDCHAR

STARTCHAR macron
ENCODING 175
SWIDTH 570 0
DWIDTH 8 0
BBX 8 15 0 -3
BITMAP
00
00
00
7E
00
00
00
00
00
00
00
00
00
00
00
ENDCHAR

STARTCHAR degree
ENCODING 176
SWIDTH 570 0
DWIDTH 8 0
BBX 8 15 0 -3
BITMAP
00
00
00
10
28
10
00
00
00
00
00
00
00
00
00
ENDCHAR

STARTCHAR plusminus
ENCODING 177
SWIDTH 570 0
DWIDTH 8 0
BBX 8 15 0 -3
BITMAP
00
00
00
00
00
08
08
3E
08
08
00
3E
00
00
00
ENDCHAR

STARTCHAR twosuperior
ENCODING 178
SWIDTH 570 0
DWIDTH 8 0
BBX 8 15 0 -3
BITMAP
00
00
00
00
18
24
08
10
20
3C
00
00
00
00
00
ENDCHAR

STARTCHAR threesuperior
ENCODING 179
SWIDTH 570 0
DWIDTH 8 0
BBX 8 15 0 -3
BITMAP
00
00
00
00
18
24
08
04
24
18
00
00
00
00
00
ENDCHAR

STARTCHAR acute
ENCODING 180
SWIDTH 570 0
DWIDTH 8 0
BBX 8 15 0 -3
BITMAP
00
00
00
04
08
10
00
00
00
00
00
00
00
00
00
ENDCHAR

STARTCHAR mu
ENCODING 181
SWIDTH 570 0
DWIDTH 8 0
BBX 8 15 0 -3
BITMAP
00
00
00
00
00
00
12
24
24
48
48
B6
00
00
00
ENDCHAR

STARTCHAR paragraph
ENCODING 182
SWIDTH 570 0
DWIDTH 8 0
BBX 8 15 0 -3
BITMAP
00
00
00
00
3E
74
74
74
34
14
14
14
14
00
00
ENDCHAR

STARTCHAR periodcentered
ENCODING 183
SWIDTH 570 0
DWIDTH 8 0
BBX 8 15 0 -3
BITMAP
00
00
00
00
00
00
10
10
00
00
00
00
00
00
00
ENDCHAR

STARTCHAR cedilla
ENCODING 184
SWIDTH 570 0
DWIDTH 8 0
BBX 8 15 0 -3
BITMAP
00
00
00
00
00
00
00
00
00
00
00
08
08
18
00
ENDCHAR

STARTCHAR onesuperior
ENCODING 185
SWIDTH 570 0
DWIDTH 8 0
BBX 8 15 0 -3
BITMAP
00
00
00
00
10
30
10
10
10
38
00
00
00
00
00
ENDCHAR

STARTCHAR ordmasculine
ENCODING 186
SWIDTH 570 0
DWIDTH 8 0
BBX 8 15 0 -3
BITMAP
00
00
00
00
30
48
48
48
30
00
78
00
00
00
00
ENDCHAR

STARTCHAR guillemotright
ENCODING 187
SWIDTH 570 0
DWIDTH 8 0
BBX 8 15 0 -3
BITMAP
00
00
00
00
00
00
48
24
12
24
48
00
00
00
00
ENDCHAR

STARTCHAR onequarter
ENCODING 188
SWIDTH 570 0
DWIDTH 8 0
BBX 8 15 0 -3
BITMAP
00
00
00
20
60
22
24
78
12
26
4A
1F
02
00
00
ENDCHAR

STARTCHAR onehalf
ENCODING 189
SWIDTH 570 0
DWIDTH 8 0
BBX 8 15 0 -3
BITMAP
00
00
00
20
60
22
24
78
16
29
42
04
0F
00
00
ENDCHAR

STARTCHAR threequarters
ENCODING 190
SWIDTH 570 0
DWIDTH 8 0
BBX 8 15 0 -3
BITMAP
00
00
00
30
48
10
4A
34
0A
16
2A
5F
02
00
00
ENDCHAR

STARTCHAR questiondown
ENCODING 191
SWIDTH 570 0
DWIDTH 8 0
BBX 8 15 0 -3
BITMAP
00
00
00
00
08
08
00
08
08
10
20
22
1C
00
00
ENDCHAR

STARTCHAR Agrave
ENCODING 192
SWIDTH 570 0
DWIDTH 8 0
BBX 8 15 0 -3
BITMAP
00
10
08
00
18
24
42
42
7E
42
42
42
00
00
00
ENDCHAR

STARTCHAR Aacute
ENCODING 193
SWIDTH 570 0
DWIDTH 8 0
BBX 8 15 0 -3
BITMAP
00
08
10
00
18
24
42
42
7E
42
42
42
00
00
00
ENDCHAR

STARTCHAR Acircumflex
ENCODING 194
SWIDTH 570 0
DWIDTH 8 0
BBX 8 15 0 -3
BITMAP
00
18
24
00
18
24
42
42
7E
42
42
42
00
00
00
ENDCHAR

STARTCHAR Atilde
ENCODING 195
SWIDTH 570 0
DWIDTH 8 0
BBX 8 15 0 -3
BITMAP
00
32
4C
00
18
24
42
42
7E
42
42
42
00
00
00
ENDCHAR

STARTCHAR Adieresis
ENCODING 196
SWIDTH 570 0
DWIDTH 8 0
BBX 8 15 0 -3
BITMAP
00
24
24
00
18
24
42
42
7E
42
42
42
00
00
00
ENDCHAR

STARTCHAR Aring
ENCODING 197
SWIDTH 570 0
DWIDTH 8 0
BBX 8 15 0 -3
BITMAP
00
18
24
18
18
24
42
42
7E
42
42
42
00
00
00
ENDCHAR

STARTCHAR AE
ENCODING 198
SWIDTH 570 0
DWIDTH 8 0
BBX 8 15 0 -3
BITMAP
00
00
00
00
1F
28
28
4E
78
48
48
4F
00
00
00
ENDCHAR

STARTCHAR Ccedilla
ENCODING 199
SWIDTH 570 0
DWIDTH 8 0
BBX 8 15 0 -3
BITMAP
00
00
00
00
3C
42
40
40
40
40
42
3C
08
10
00
ENDCHAR

STARTCHAR Egrave
ENCODING 200
SWIDTH 570 0
DWIDTH 8 0
BBX 8 15 0 -3
BITMAP
00
10
08
00
3E
20
20
3C
20
20
20
3E
00
00
00
ENDCHAR

STARTCHAR Eacute
ENCODING 201
SWIDTH 570 0
DWIDTH 8 0
BBX 8 15 0 -3
BITMAP
00
04
08
00
3E
20
20
3C
20
20
20
3E
00
00
00
ENDCHAR

STARTCHAR Ecircumflex
ENCODING 202
SWIDTH 570 0
DWIDTH 8 0
BBX 8 15 0 -3
BITMAP
00
0C
12
00
3E
20
20
3C
20
20
20
3E
00
00
00
ENDCHAR

STARTCHAR Edieresis
ENCODING 203
SWIDTH 570 0
DWIDTH 8 0
BBX 8 15 0 -3
BITMAP
00
14
14
00
3E
20
20
3C
20
20
20
3E
00
00
00
ENDCHAR

STARTCHAR Igrave
ENCODING 204
SWIDTH 570 0
DWIDTH 8 0
BBX 8 15 0 -3
BITMAP
00
10
08
00
3E
08
08
08
08
08
08
3E
00
00
00
ENDCHAR

STARTCHAR Iacute
ENCODING 205
SWIDTH 570 0
DWIDTH 8 0
BBX 8 15 0 -3
BITMAP
00
04
08
00
3E
08
08
08
08
08
08
3E
00
00
00
ENDCHAR

STARTCHAR Icircumflex
ENCODING 206
SWIDTH 570 0
DWIDTH 8 0
BBX 8 15 0 -3
BITMAP
00
08
14
00
3E
08
08
08
08
08
08
3E
00
00
00
ENDCHAR

STARTCHAR Idieresis
ENCODING 207
SWIDTH 570 0
DWIDTH 8 0
BBX 8 15 0 -3
BITMAP
00
14
14
00
3E
08
08
08
08
08
08
3E
00
00
00
ENDCHAR

STARTCHAR Eth
ENCODING 208
SWIDTH 570 0
DWIDTH 8 0
BBX 8 15 0 -3
BITMAP
00
00
00
00
7C
42
42
F2
42
42
42
7C
00
00
00
ENDCHAR

STARTCHAR Ntilde
ENCODING 209
SWIDTH 570 0
DWIDTH 8 0
BBX 8 15 0 -3
BITMAP
00
32
4C
00
42
62
52
52
4A
4A
46
42
00
00
00
ENDCHAR

STARTCHAR Ograve
ENCODING 210
SWIDTH 570 0
DWIDTH 8 0
BBX 8 15 0 -3
BITMAP
00
10
08
00
3C
42
42
42
42
42
42
3C
00
00
00
ENDCHAR

STARTCHAR Oacute
ENCODING 211
SWIDTH 570 0
DWIDTH 8 0
BBX 8 15 0 -3
BITMAP
00
08
10
00
3C
42
42
42
42
42
42
3C
00
00
00
ENDCHAR

STARTCHAR Ocircumflex
ENCODING 212
SWIDTH 570 0
DWIDTH 8 0
BBX 8 15 0 -3
BITMAP
00
18
24
00
3C
42
42
42
42
42
42
3C
00
00
00
ENDCHAR

STARTCHAR Otilde
ENCODING 213
SWIDTH 570 0
DWIDTH 8 0
BBX 8 15 0 -3
BITMAP
00
32
4C
00
3C
42
42
42
42
42
42
3C
00
00
00
ENDCHAR

STARTCHAR Odieresis
ENCODING 214
SWIDTH 570 0
DWIDTH 8 0
BBX 8 15 0 -3
BITMAP
00
24
24
00
3C
42
42
42
42
42
42
3C
00
00
00
ENDCHAR

STARTCHAR multiply
ENCODING 215
SWIDTH 570 0
DWIDTH 8 0
BBX 8 15 0 -3
BITMAP
00
00
00
00
00
00
22
14
08
14
22
00
00
00
00
ENDCHAR

STARTCHAR Oslash
ENCODING 216
SWIDTH 570 0
DWIDTH 8 0
BBX 8 15 0 -3
BITMAP
00
00
00
00
3D
42
46
4A
4A
52
62
7C
80
00
00
ENDCHAR

STARTCHAR Ugrave
ENCODING 217
SWIDTH 570 0
DWIDTH 8 0
BBX 8 15 0 -3
BITMAP
00
10
08
00
42
42
42
42
42
42
42
3C
00
00
00
ENDCHAR

STARTCHAR Uacute
ENCODING 218
SWIDTH 570 0
DWIDTH 8 0
BBX 8 15 0 -3
BITMAP
00
08
10
00
42
42
42
42
42
42
42
3C
00
00
00
ENDCHAR

STARTCHAR Ucircumflex
ENCODING 219
SWIDTH 570 0
DWIDTH 8 0
BBX 8 15 0 -3
BITMAP
00
18
24
00
42
42
42
42
42
42
42
3C
00
00
00
ENDCHAR

STARTCHAR Udieresis
ENCODING 220
SWIDTH 570 0
DWIDTH 8 0
BBX 8 15 0 -3
BITMAP
00
24
24
00
42
42
42
42
42
42
42
3C
00
00
00
ENDCHAR

STARTCHAR Yacute
ENCODING 221
SWIDTH 570 0
DWIDTH 8 0
BBX 8 15 0 -3
BITMAP
00
0C
10
00
41
41
22
14
08
08
08
08
00
00
00
ENDCHAR

STARTCHAR Thorn
ENCODING 222
SWIDTH 570 0
DWIDTH 8 0
BBX 8 15 0 -3
BITMAP
00
00
00
00
70
20
3C
22
22
3C
20
70
00
00
00
ENDCHAR

STARTCHAR germandbls
ENCODING 223
SWIDTH 570 0
DWIDTH 8 0
BBX 8 15 0 -3
BITMAP
00
00
00
00
1C
22
22
64
22
22
22
6C
00
00
00
ENDCHAR

STARTCHAR agrave
ENCODING 224
SWIDTH 570 0
DWIDTH 8 0
BBX 8 15 0 -3
BITMAP
00
00
00
10
08
00
3C
02
3E
42
42
3D
00
00
00
ENDCHAR

STARTCHAR aacute
ENCODING 225
SWIDTH 570 0
DWIDTH 8 0
BBX 8 15 0 -3
BITMAP
00
00
00
04
08
00
3C
02
3E
42
42
3D
00
00
00
ENDCHAR

STARTCHAR acircumflex
ENCODING 226
SWIDTH 570 0
DWIDTH 8 0
BBX 8 15 0 -3
BITMAP
00
00
00
18
24
00
3C
02
3E
42
42
3D
00
00
00
ENDCHAR

STARTCHAR atilde
ENCODING 227
SWIDTH 570 0
DWIDTH 8 0
BBX 8 15 0 -3
BITMAP
00
00
00
1A
2C
00
3C
02
3E
42
42
3D
00
00
00
ENDCHAR

STARTCHAR adieresis
ENCODING 228
SWIDTH 570 0
DWIDTH 8 0
BBX 8 15 0 -3
BITMAP
00
00
00
12
12
00
3C
02
3E
42
42
3D
00
00
00
ENDCHAR

STARTCHAR aring
ENCODING 229
SWIDTH 570 0
DWIDTH 8 0
BBX 8 15 0 -3
BITMAP
00
00
1C
22
1C
00
3C
02
3E
42
42
3D
00
00
00
ENDCHAR

STARTCHAR ae
ENCODING 230
SWIDTH 570 0
DWIDTH 8 0
BBX 8 15 0 -3
BITMAP
00
00
00
00
00
00
76
09
3F
48
49
36
00
00
00
ENDCHAR

STARTCHAR ccedilla
ENCODING 231
SWIDTH 570 0
DWIDTH 8 0
BBX 8 15 0 -3
BITMAP
00
00
00
00
00
00
3C
42
40
40
42
3C
10
20
00
ENDCHAR

STARTCHAR egrave
ENCODING 232
SWIDTH 570 0
DWIDTH 8 0
BBX 8 15 0 -3
BITMAP
00
00
00
10
08
00
3C
42
7E
40
42
3C
00
00
00
ENDCHAR

STARTCHAR eacute
ENCODING 233
SWIDTH 570 0
DWIDTH 8 0
BBX 8 15 0 -3
BITMAP
00
00
00
04
08
00
3C
42
7E
40
42
3C
00
00
00
ENDCHAR

STARTCHAR ecircumflex
ENCODING 234
SWIDTH 570 0
DWIDTH 8 0
BBX 8 15 0 -3
BITMAP
00
00
00
18
24
00
3C
42
7E
40
42
3C
00
00
00
ENDCHAR

STARTCHAR edieresis
ENCODING 235
SWIDTH 570 0
DWIDTH 8 0
BBX 8 15 0 -3
BITMAP
00
00
00
24
24
00
3C
42
7E
40
42
3C
00
00
00
ENDCHAR

STARTCHAR igrave
ENCODING 236
SWIDTH 570 0
DWIDTH 8 0
BBX 8 15 0 -3
BITMAP
00
00
00
10
08
00
18
08
08
08
08
3E
00
00
00
ENDCHAR

STARTCHAR iacute
ENCODING 237
SWIDTH 570 0
DWIDTH 8 0
BBX 8 15 0 -3
BITMAP
00
00
00
08
10
00
18
08
08
08
08
3E
00
00
00
ENDCHAR

STARTCHAR icircumflex
ENCODING 238
SWIDTH 570 0
DWIDTH 8 0
BBX 8 15 0 -3
BITMAP
00
00
00
18
24
00
18
08
08
08
08
3E
00
00
00
ENDCHAR

STARTCHAR idieresis
ENCODING 239
SWIDTH 570 0
DWIDTH 8 0
BBX 8 15 0 -3
BITMAP
00
00
00
14
14
00
18
08
08
08
08
3E
00
00
00
ENDCHAR

STARTCHAR eth
ENCODING 240
SWIDTH 570 0
DWIDTH 8 0
BBX 8 15 0 -3
BITMAP
00
00
00
48
30
30
48
3C
42
42
42
3C
00
00
00
ENDCHAR

STARTCHAR ntilde
ENCODING 241
SWIDTH 570 0
DWIDTH 8 0
BBX 8 15 0 -3
BITMAP
00
00
00
1A
2C
00
5C
62
42
42
42
42
00
00
00
ENDCHAR

STARTCHAR ograve
ENCODING 242
SWIDTH 570 0
DWIDTH 8 0
BBX 8 15 0 -3
BITMAP
00
00
00
10
08
00
3C
42
42
42
42
3C
00
00
00
ENDCHAR

STARTCHAR oacute
ENCODING 243
SWIDTH 570 0
DWIDTH 8 0
BBX 8 15 0 -3
BITMAP
00
00
00
08
10
00
3C
42
42
42
42
3C
00
00
00
ENDCHAR

STARTCHAR ocircumflex
ENCODING 244
SWIDTH 570 0
DWIDTH 8 0
BBX 8 15 0 -3
BITMAP
00
00
00
18
24
00
3C
42
42
42
42
3C
00
00
00
ENDCHAR

STARTCHAR otilde
ENCODING 245
SWIDTH 570 0
DWIDTH 8 0
BBX 8 15 0 -3
BITMAP
00
00
00
1A
2C
00
3C
42
42
42
42
3C
00
00
00
ENDCHAR

STARTCHAR odieresis
ENCODING 246
SWIDTH 570 0
DWIDTH 8 0
BBX 8 15 0 -3
BITMAP
00
00
00
24
24
00
3C
42
42
42
42
3C
00
00
00
ENDCHAR

STARTCHAR divide
ENCODING 247
SWIDTH 570 0
DWIDTH 8 0
BBX 8 15 0 -3
BITMAP
00
00
00
00
00
08
08
00
3E
00
08
08
00
00
00
ENDCHAR

STARTCHAR oslash
ENCODING 248
SWIDTH 570 0
DWIDTH 8 0
BBX 8 15 0 -3
BITMAP
00
00
00
00
00
01
3E
46
4A
52
62
7C
80
00
00
ENDCHAR

STARTCHAR ugrave
ENCODING 249
SWIDTH 570 0
DWIDTH 8 0
BBX 8 15 0 -3
BITMAP
00
00
00
10
08
00
42
42
42
42
46
3A
00
00
00
ENDCHAR

STARTCHAR uacute
ENCODING 250
SWIDTH 570 0
DWIDTH 8 0
BBX 8 15 0 -3
BITMAP
00
00
00
08
10
00
42
42
42
42
46
3A
00
00
00
ENDCHAR

STARTCHAR ucircumflex
ENCODING 251
SWIDTH 570 0
DWIDTH 8 0
BBX 8 15 0 -3
BITMAP
00
00
00
18
24
00
42
42
42
42
46
3A
00
00
00
ENDCHAR

STARTCHAR udieresis
ENCODING 252
SWIDTH 570 0
DWIDTH 8 0
BBX 8 15 0 -3
BITMAP
00
00
00
24
24
00
42
42
42
42
46
3A
00
00
00
ENDCHAR

STARTCHAR yacute
ENCODING 253
SWIDTH 570 0
DWIDTH 8 0
BBX 8 15 0 -3
BITMAP
00
00
00
04
08
00
63
22
22
14
0C
08
48
30
00
ENDCHAR

STARTCHAR thorn
ENCODING 254
SWIDTH 570 0
DWIDTH 8 0
BBX 8 15 0 -3
BITMAP
00
00
00
00
70
20
3C
22
22
22
22
3C
20
70
00
ENDCHAR

STARTCHAR ydieresis
ENCODING 255
SWIDTH 570 0
DWIDTH 8 0
BBX 8 15 0 -3
BITMAP
00
00
00
14
14
00
63
22
22
14
14
08
48
30
00
ENDCHAR

ENDFONT
